G04 #@! TF.GenerationSoftware,KiCad,Pcbnew,(6.0.7-1)-1*
G04 #@! TF.CreationDate,2023-02-04T12:54:48-08:00*
G04 #@! TF.ProjectId,switcher-input-daughterboard,73776974-6368-4657-922d-696e7075742d,1*
G04 #@! TF.SameCoordinates,Original*
G04 #@! TF.FileFunction,Legend,Top*
G04 #@! TF.FilePolarity,Positive*
%FSLAX46Y46*%
G04 Gerber Fmt 4.6, Leading zero omitted, Abs format (unit mm)*
G04 Created by KiCad (PCBNEW (6.0.7-1)-1) date 2023-02-04 12:54:48*
%MOMM*%
%LPD*%
G01*
G04 APERTURE LIST*
%ADD10C,0.150000*%
%ADD11C,0.127000*%
%ADD12C,0.120000*%
%ADD13C,2.500000*%
%ADD14R,1.408000X1.408000*%
%ADD15C,1.408000*%
%ADD16O,2.730000X1.230000*%
%ADD17C,3.216000*%
%ADD18O,1.000000X1.000000*%
%ADD19R,1.000000X1.000000*%
G04 APERTURE END LIST*
D10*
X122841666Y-52117380D02*
X122841666Y-52831666D01*
X122794047Y-52974523D01*
X122698809Y-53069761D01*
X122555952Y-53117380D01*
X122460714Y-53117380D01*
X123508333Y-52117380D02*
X123603571Y-52117380D01*
X123698809Y-52165000D01*
X123746428Y-52212619D01*
X123794047Y-52307857D01*
X123841666Y-52498333D01*
X123841666Y-52736428D01*
X123794047Y-52926904D01*
X123746428Y-53022142D01*
X123698809Y-53069761D01*
X123603571Y-53117380D01*
X123508333Y-53117380D01*
X123413095Y-53069761D01*
X123365476Y-53022142D01*
X123317857Y-52926904D01*
X123270238Y-52736428D01*
X123270238Y-52498333D01*
X123317857Y-52307857D01*
X123365476Y-52212619D01*
X123413095Y-52165000D01*
X123508333Y-52117380D01*
X171617380Y-47498333D02*
X172331666Y-47498333D01*
X172474523Y-47545952D01*
X172569761Y-47641190D01*
X172617380Y-47784047D01*
X172617380Y-47879285D01*
X171617380Y-46545952D02*
X171617380Y-47022142D01*
X172093571Y-47069761D01*
X172045952Y-47022142D01*
X171998333Y-46926904D01*
X171998333Y-46688809D01*
X172045952Y-46593571D01*
X172093571Y-46545952D01*
X172188809Y-46498333D01*
X172426904Y-46498333D01*
X172522142Y-46545952D01*
X172569761Y-46593571D01*
X172617380Y-46688809D01*
X172617380Y-46926904D01*
X172569761Y-47022142D01*
X172522142Y-47069761D01*
X212841666Y-52117380D02*
X212841666Y-52831666D01*
X212794047Y-52974523D01*
X212698809Y-53069761D01*
X212555952Y-53117380D01*
X212460714Y-53117380D01*
X213222619Y-52117380D02*
X213841666Y-52117380D01*
X213508333Y-52498333D01*
X213651190Y-52498333D01*
X213746428Y-52545952D01*
X213794047Y-52593571D01*
X213841666Y-52688809D01*
X213841666Y-52926904D01*
X213794047Y-53022142D01*
X213746428Y-53069761D01*
X213651190Y-53117380D01*
X213365476Y-53117380D01*
X213270238Y-53069761D01*
X213222619Y-53022142D01*
X243091666Y-52367380D02*
X243091666Y-53081666D01*
X243044047Y-53224523D01*
X242948809Y-53319761D01*
X242805952Y-53367380D01*
X242710714Y-53367380D01*
X243996428Y-52700714D02*
X243996428Y-53367380D01*
X243758333Y-52319761D02*
X243520238Y-53034047D01*
X244139285Y-53034047D01*
X182841666Y-52367380D02*
X182841666Y-53081666D01*
X182794047Y-53224523D01*
X182698809Y-53319761D01*
X182555952Y-53367380D01*
X182460714Y-53367380D01*
X183270238Y-52462619D02*
X183317857Y-52415000D01*
X183413095Y-52367380D01*
X183651190Y-52367380D01*
X183746428Y-52415000D01*
X183794047Y-52462619D01*
X183841666Y-52557857D01*
X183841666Y-52653095D01*
X183794047Y-52795952D01*
X183222619Y-53367380D01*
X183841666Y-53367380D01*
X152841666Y-52117380D02*
X152841666Y-52831666D01*
X152794047Y-52974523D01*
X152698809Y-53069761D01*
X152555952Y-53117380D01*
X152460714Y-53117380D01*
X153841666Y-53117380D02*
X153270238Y-53117380D01*
X153555952Y-53117380D02*
X153555952Y-52117380D01*
X153460714Y-52260238D01*
X153365476Y-52355476D01*
X153270238Y-52403095D01*
D11*
X134400000Y-69700000D02*
X119600000Y-69700000D01*
X134400000Y-55700000D02*
X134400000Y-62100000D01*
X119600000Y-69700000D02*
X119600000Y-66100000D01*
X119600000Y-55700000D02*
X134400000Y-55700000D01*
X134400000Y-69700000D02*
X134400000Y-66100000D01*
X119600000Y-62100000D02*
X119600000Y-55700000D01*
D12*
X199125000Y-47492470D02*
X199125000Y-46837530D01*
X174935000Y-45770000D02*
X174935000Y-45580000D01*
X199125000Y-46222470D02*
X199125000Y-45580000D01*
X173540000Y-46530000D02*
X173540000Y-45580000D01*
X173605000Y-48750000D02*
X199125000Y-48750000D01*
X173605000Y-48750000D02*
X173605000Y-48107530D01*
X173605000Y-47492470D02*
X173605000Y-47290000D01*
X174935000Y-45580000D02*
X199125000Y-45580000D01*
X173540000Y-45580000D02*
X174300000Y-45580000D01*
X199125000Y-48750000D02*
X199125000Y-48107530D01*
D11*
X209600000Y-69700000D02*
X209600000Y-66100000D01*
X224400000Y-55700000D02*
X224400000Y-62100000D01*
X224400000Y-69700000D02*
X209600000Y-69700000D01*
X209600000Y-62100000D02*
X209600000Y-55700000D01*
X209600000Y-55700000D02*
X224400000Y-55700000D01*
X224400000Y-69700000D02*
X224400000Y-66100000D01*
X254650000Y-69950000D02*
X239850000Y-69950000D01*
X239850000Y-55950000D02*
X254650000Y-55950000D01*
X239850000Y-69950000D02*
X239850000Y-66350000D01*
X239850000Y-62350000D02*
X239850000Y-55950000D01*
X254650000Y-55950000D02*
X254650000Y-62350000D01*
X254650000Y-69950000D02*
X254650000Y-66350000D01*
X194400000Y-55950000D02*
X194400000Y-62350000D01*
X194400000Y-69950000D02*
X194400000Y-66350000D01*
X179600000Y-69950000D02*
X179600000Y-66350000D01*
X179600000Y-55950000D02*
X194400000Y-55950000D01*
X194400000Y-69950000D02*
X179600000Y-69950000D01*
X179600000Y-62350000D02*
X179600000Y-55950000D01*
X149600000Y-62100000D02*
X149600000Y-55700000D01*
X164400000Y-69700000D02*
X149600000Y-69700000D01*
X149600000Y-69700000D02*
X149600000Y-66100000D01*
X164400000Y-69700000D02*
X164400000Y-66100000D01*
X164400000Y-55700000D02*
X164400000Y-62100000D01*
X149600000Y-55700000D02*
X164400000Y-55700000D01*
%LPC*%
D13*
X260000000Y-43250000D03*
X260000000Y-60000000D03*
X114250000Y-60000000D03*
X114250000Y-43000000D03*
D14*
X128300000Y-61200000D03*
D15*
X126300000Y-61200000D03*
X131000000Y-61200000D03*
X129000000Y-58700000D03*
X127000000Y-58700000D03*
X123000000Y-61200000D03*
X131000000Y-58700000D03*
X125000000Y-58700000D03*
X123000000Y-58700000D03*
D16*
X127000000Y-65000000D03*
D17*
X119750000Y-64100000D03*
X134250000Y-64100000D03*
D18*
X174300000Y-47800000D03*
X175570000Y-47800000D03*
X176840000Y-47800000D03*
X178110000Y-47800000D03*
X179380000Y-47800000D03*
X180650000Y-47800000D03*
X181920000Y-47800000D03*
X183190000Y-47800000D03*
X184460000Y-47800000D03*
X185730000Y-47800000D03*
X187000000Y-47800000D03*
X188270000Y-47800000D03*
X189540000Y-47800000D03*
X190810000Y-47800000D03*
X192080000Y-47800000D03*
X193350000Y-47800000D03*
X194620000Y-47800000D03*
X195890000Y-47800000D03*
X197160000Y-47800000D03*
X198430000Y-47800000D03*
X198430000Y-46530000D03*
X197160000Y-46530000D03*
X195890000Y-46530000D03*
X194620000Y-46530000D03*
X193350000Y-46530000D03*
X192080000Y-46530000D03*
X190810000Y-46530000D03*
X189540000Y-46530000D03*
X188270000Y-46530000D03*
X187000000Y-46530000D03*
X185730000Y-46530000D03*
X184460000Y-46530000D03*
X183190000Y-46530000D03*
X181920000Y-46530000D03*
X180650000Y-46530000D03*
X179380000Y-46530000D03*
X178110000Y-46530000D03*
X176840000Y-46530000D03*
X175570000Y-46530000D03*
D19*
X174300000Y-46530000D03*
D17*
X224250000Y-64100000D03*
X209750000Y-64100000D03*
D16*
X217000000Y-65000000D03*
D15*
X213000000Y-58700000D03*
X215000000Y-58700000D03*
X221000000Y-58700000D03*
X213000000Y-61200000D03*
X217000000Y-58700000D03*
X219000000Y-58700000D03*
X221000000Y-61200000D03*
X216300000Y-61200000D03*
D14*
X218300000Y-61200000D03*
X248550000Y-61450000D03*
D15*
X246550000Y-61450000D03*
X251250000Y-61450000D03*
X249250000Y-58950000D03*
X247250000Y-58950000D03*
X243250000Y-61450000D03*
X251250000Y-58950000D03*
X245250000Y-58950000D03*
X243250000Y-58950000D03*
D16*
X247250000Y-65250000D03*
D17*
X240000000Y-64350000D03*
X254500000Y-64350000D03*
D14*
X188300000Y-61450000D03*
D15*
X186300000Y-61450000D03*
X191000000Y-61450000D03*
X189000000Y-58950000D03*
X187000000Y-58950000D03*
X183000000Y-61450000D03*
X191000000Y-58950000D03*
X185000000Y-58950000D03*
X183000000Y-58950000D03*
D16*
X187000000Y-65250000D03*
D17*
X179750000Y-64350000D03*
X194250000Y-64350000D03*
D14*
X158300000Y-61200000D03*
D15*
X156300000Y-61200000D03*
X161000000Y-61200000D03*
X159000000Y-58700000D03*
X157000000Y-58700000D03*
X153000000Y-61200000D03*
X161000000Y-58700000D03*
X155000000Y-58700000D03*
X153000000Y-58700000D03*
D16*
X157000000Y-65000000D03*
D17*
X149750000Y-64100000D03*
X164250000Y-64100000D03*
M02*
