G04 #@! TF.GenerationSoftware,KiCad,Pcbnew,(6.0.7-1)-1*
G04 #@! TF.CreationDate,2023-02-04T12:54:47-08:00*
G04 #@! TF.ProjectId,switcher-input-daughterboard,73776974-6368-4657-922d-696e7075742d,1*
G04 #@! TF.SameCoordinates,Original*
G04 #@! TF.FileFunction,Copper,L1,Top*
G04 #@! TF.FilePolarity,Positive*
%FSLAX46Y46*%
G04 Gerber Fmt 4.6, Leading zero omitted, Abs format (unit mm)*
G04 Created by KiCad (PCBNEW (6.0.7-1)-1) date 2023-02-04 12:54:47*
%MOMM*%
%LPD*%
G01*
G04 APERTURE LIST*
G04 #@! TA.AperFunction,ComponentPad*
%ADD10R,1.408000X1.408000*%
G04 #@! TD*
G04 #@! TA.AperFunction,ComponentPad*
%ADD11C,1.408000*%
G04 #@! TD*
G04 #@! TA.AperFunction,ComponentPad*
%ADD12O,2.730000X1.230000*%
G04 #@! TD*
G04 #@! TA.AperFunction,ComponentPad*
%ADD13C,3.216000*%
G04 #@! TD*
G04 #@! TA.AperFunction,ComponentPad*
%ADD14O,1.000000X1.000000*%
G04 #@! TD*
G04 #@! TA.AperFunction,ComponentPad*
%ADD15R,1.000000X1.000000*%
G04 #@! TD*
G04 #@! TA.AperFunction,Conductor*
%ADD16C,0.254000*%
G04 #@! TD*
G04 #@! TA.AperFunction,Conductor*
%ADD17C,0.508000*%
G04 #@! TD*
G04 APERTURE END LIST*
D10*
X128300000Y-61200000D03*
D11*
X126300000Y-61200000D03*
X131000000Y-61200000D03*
X129000000Y-58700000D03*
X127000000Y-58700000D03*
X123000000Y-61200000D03*
X131000000Y-58700000D03*
X125000000Y-58700000D03*
X123000000Y-58700000D03*
D12*
X127000000Y-65000000D03*
D13*
X119750000Y-64100000D03*
X134250000Y-64100000D03*
D14*
X174300000Y-47800000D03*
X175570000Y-47800000D03*
X176840000Y-47800000D03*
X178110000Y-47800000D03*
X179380000Y-47800000D03*
X180650000Y-47800000D03*
X181920000Y-47800000D03*
X183190000Y-47800000D03*
X184460000Y-47800000D03*
X185730000Y-47800000D03*
X187000000Y-47800000D03*
X188270000Y-47800000D03*
X189540000Y-47800000D03*
X190810000Y-47800000D03*
X192080000Y-47800000D03*
X193350000Y-47800000D03*
X194620000Y-47800000D03*
X195890000Y-47800000D03*
X197160000Y-47800000D03*
X198430000Y-47800000D03*
X198430000Y-46530000D03*
X197160000Y-46530000D03*
X195890000Y-46530000D03*
X194620000Y-46530000D03*
X193350000Y-46530000D03*
X192080000Y-46530000D03*
X190810000Y-46530000D03*
X189540000Y-46530000D03*
X188270000Y-46530000D03*
X187000000Y-46530000D03*
X185730000Y-46530000D03*
X184460000Y-46530000D03*
X183190000Y-46530000D03*
X181920000Y-46530000D03*
X180650000Y-46530000D03*
X179380000Y-46530000D03*
X178110000Y-46530000D03*
X176840000Y-46530000D03*
X175570000Y-46530000D03*
D15*
X174300000Y-46530000D03*
D13*
X224250000Y-64100000D03*
X209750000Y-64100000D03*
D12*
X217000000Y-65000000D03*
D11*
X213000000Y-58700000D03*
X215000000Y-58700000D03*
X221000000Y-58700000D03*
X213000000Y-61200000D03*
X217000000Y-58700000D03*
X219000000Y-58700000D03*
X221000000Y-61200000D03*
X216300000Y-61200000D03*
D10*
X218300000Y-61200000D03*
X248550000Y-61450000D03*
D11*
X246550000Y-61450000D03*
X251250000Y-61450000D03*
X249250000Y-58950000D03*
X247250000Y-58950000D03*
X243250000Y-61450000D03*
X251250000Y-58950000D03*
X245250000Y-58950000D03*
X243250000Y-58950000D03*
D12*
X247250000Y-65250000D03*
D13*
X240000000Y-64350000D03*
X254500000Y-64350000D03*
D10*
X188300000Y-61450000D03*
D11*
X186300000Y-61450000D03*
X191000000Y-61450000D03*
X189000000Y-58950000D03*
X187000000Y-58950000D03*
X183000000Y-61450000D03*
X191000000Y-58950000D03*
X185000000Y-58950000D03*
X183000000Y-58950000D03*
D12*
X187000000Y-65250000D03*
D13*
X179750000Y-64350000D03*
X194250000Y-64350000D03*
D10*
X158300000Y-61200000D03*
D11*
X156300000Y-61200000D03*
X161000000Y-61200000D03*
X159000000Y-58700000D03*
X157000000Y-58700000D03*
X153000000Y-61200000D03*
X161000000Y-58700000D03*
X155000000Y-58700000D03*
X153000000Y-58700000D03*
D12*
X157000000Y-65000000D03*
D13*
X149750000Y-64100000D03*
X164250000Y-64100000D03*
D16*
X251000000Y-58700000D02*
X247300000Y-55000000D01*
X247300000Y-55000000D02*
X227449336Y-55000000D01*
X227449336Y-55000000D02*
X223525336Y-51076000D01*
X223525336Y-51076000D02*
X207176000Y-51076000D01*
X197160000Y-46040000D02*
X197160000Y-46530000D01*
X207176000Y-51076000D02*
X201108000Y-45008000D01*
X201108000Y-45008000D02*
X198192000Y-45008000D01*
X198192000Y-45008000D02*
X197160000Y-46040000D01*
X248300000Y-61200000D02*
X249800000Y-62700000D01*
X249800000Y-62700000D02*
X251100000Y-62700000D01*
X194620000Y-45680001D02*
X194620000Y-46530000D01*
X251100000Y-62700000D02*
X253600000Y-60200000D01*
X253600000Y-58400000D02*
X245260000Y-50060000D01*
X253600000Y-60200000D02*
X253600000Y-58400000D01*
X245260000Y-50060000D02*
X209978420Y-50060000D01*
X209978420Y-50060000D02*
X203910420Y-43992000D01*
X196308001Y-43992000D02*
X194620000Y-45680001D01*
X203910420Y-43992000D02*
X196308001Y-43992000D01*
X195890000Y-46530000D02*
X195890000Y-45610000D01*
X195890000Y-45610000D02*
X197000000Y-44500000D01*
X202600000Y-44500000D02*
X208668000Y-50568000D01*
X208668000Y-50568000D02*
X244868000Y-50568000D01*
X197000000Y-44500000D02*
X202600000Y-44500000D01*
X244868000Y-50568000D02*
X252600000Y-58300000D01*
X252600000Y-58300000D02*
X252600000Y-59600000D01*
X252600000Y-59600000D02*
X251000000Y-61200000D01*
X198430000Y-46530000D02*
X198830000Y-46530000D01*
X223314918Y-51584002D02*
X227330916Y-55600000D01*
X245900000Y-55600000D02*
X249000000Y-58700000D01*
X227330916Y-55600000D02*
X245900000Y-55600000D01*
X198830000Y-46530000D02*
X203884000Y-51584000D01*
X203884000Y-51584000D02*
X223314918Y-51584002D01*
X223104497Y-52092001D02*
X228012496Y-57000000D01*
X243300000Y-57000000D02*
X245000000Y-58700000D01*
X198430000Y-48630000D02*
X201892000Y-52092000D01*
X198430000Y-47800000D02*
X198430000Y-48630000D01*
X228012496Y-57000000D02*
X243300000Y-57000000D01*
X201892000Y-52092000D02*
X223104497Y-52092001D01*
X197160000Y-47800000D02*
X197160000Y-48135133D01*
X228994076Y-58700000D02*
X243000000Y-58700000D01*
X197160000Y-48135133D02*
X201719867Y-52695000D01*
X201719867Y-52695000D02*
X222989076Y-52695000D01*
X222989076Y-52695000D02*
X228994076Y-58700000D01*
D17*
X194620000Y-47800000D02*
X194620000Y-48314738D01*
X194620000Y-48314738D02*
X200905262Y-54600000D01*
X200905262Y-54600000D02*
X222200000Y-54600000D01*
X239650000Y-64200000D02*
X239750000Y-64100000D01*
X222200000Y-54600000D02*
X231800000Y-64200000D01*
X231800000Y-64200000D02*
X239650000Y-64200000D01*
X179750000Y-64000000D02*
X180650000Y-64900000D01*
X180650000Y-64900000D02*
X187000000Y-64900000D01*
X247000000Y-65000000D02*
X253350000Y-65000000D01*
X253350000Y-65000000D02*
X254250000Y-64100000D01*
X239750000Y-64100000D02*
X246100000Y-64100000D01*
X246100000Y-64100000D02*
X247000000Y-65000000D01*
X187000000Y-64900000D02*
X193350000Y-64900000D01*
X193350000Y-64900000D02*
X194250000Y-64000000D01*
X195890000Y-47800000D02*
X195890000Y-48147898D01*
X230736840Y-61700000D02*
X240701687Y-61700000D01*
X195890000Y-48147898D02*
X201326102Y-53584000D01*
X201326102Y-53584000D02*
X222620840Y-53584000D01*
X244700000Y-62800000D02*
X246300000Y-61200000D01*
X222620840Y-53584000D02*
X230736840Y-61700000D01*
X240701687Y-61700000D02*
X241801687Y-62800000D01*
X241801687Y-62800000D02*
X244700000Y-62800000D01*
D16*
X188300000Y-61300000D02*
X189500000Y-62500000D01*
X189500000Y-62500000D02*
X191500000Y-62500000D01*
X188300000Y-61100000D02*
X188300000Y-61300000D01*
X191500000Y-62500000D02*
X193400000Y-60600000D01*
X193400000Y-60600000D02*
X193400000Y-57300000D01*
X193400000Y-57300000D02*
X191068000Y-54968000D01*
X191068000Y-54968000D02*
X186968000Y-54968000D01*
X186968000Y-54968000D02*
X183190000Y-51190000D01*
X183190000Y-51190000D02*
X183190000Y-47800000D01*
X181920000Y-47800000D02*
X181920000Y-51920000D01*
X190376000Y-55476000D02*
X192600000Y-57700000D01*
X181920000Y-51920000D02*
X185476000Y-55476000D01*
X185476000Y-55476000D02*
X190376000Y-55476000D01*
X192600000Y-57700000D02*
X192600000Y-59500000D01*
X192600000Y-59500000D02*
X191000000Y-61100000D01*
X180650000Y-47800000D02*
X180650000Y-52650000D01*
X180650000Y-52650000D02*
X183984000Y-55984000D01*
X183984000Y-55984000D02*
X188384000Y-55984000D01*
X188384000Y-55984000D02*
X191000000Y-58600000D01*
X179380000Y-47800000D02*
X179380000Y-54380000D01*
X186892000Y-56492000D02*
X189000000Y-58600000D01*
X179380000Y-54380000D02*
X181492000Y-56492000D01*
X181492000Y-56492000D02*
X186892000Y-56492000D01*
X178110000Y-47800000D02*
X178110000Y-55110000D01*
X178110000Y-55110000D02*
X180000000Y-57000000D01*
X180000000Y-57000000D02*
X183400000Y-57000000D01*
X183400000Y-57000000D02*
X185000000Y-58600000D01*
X176840000Y-47800000D02*
X176840000Y-56840000D01*
X176840000Y-56840000D02*
X178600000Y-58600000D01*
X178600000Y-58600000D02*
X183000000Y-58600000D01*
D17*
X175570000Y-47800000D02*
X175570000Y-58383160D01*
X175570000Y-58383160D02*
X178186840Y-61000000D01*
X180826762Y-61000000D02*
X182392762Y-62566000D01*
X178186840Y-61000000D02*
X180826762Y-61000000D01*
X182392762Y-62566000D02*
X184834000Y-62566000D01*
X184834000Y-62566000D02*
X186300000Y-61100000D01*
X174300000Y-47800000D02*
X174300000Y-58550000D01*
X174300000Y-58550000D02*
X179750000Y-64000000D01*
D16*
X133400000Y-49600000D02*
X137755000Y-45245000D01*
X137755000Y-45245000D02*
X173015000Y-45245000D01*
X129800000Y-62600000D02*
X131900000Y-62600000D01*
X133400000Y-61100000D02*
X133400000Y-49600000D01*
X128300000Y-61200000D02*
X128400000Y-61200000D01*
X131900000Y-62600000D02*
X133400000Y-61100000D01*
X173015000Y-45245000D02*
X174300000Y-46530000D01*
X128400000Y-61200000D02*
X129800000Y-62600000D01*
D17*
X120766000Y-61166000D02*
X122266000Y-62666000D01*
X181920000Y-44936000D02*
X178800000Y-41816000D01*
X181920000Y-46530000D02*
X181920000Y-44936000D01*
X178800000Y-41816000D02*
X126820840Y-41816000D01*
X120766000Y-47870840D02*
X120766000Y-61166000D01*
X122266000Y-62666000D02*
X124834000Y-62666000D01*
X124834000Y-62666000D02*
X126300000Y-61200000D01*
X126820840Y-41816000D02*
X120766000Y-47870840D01*
D16*
X137063000Y-44737000D02*
X132200000Y-49600000D01*
X132200000Y-49600000D02*
X132200000Y-60000000D01*
X175570000Y-46170000D02*
X174137000Y-44737000D01*
X175570000Y-46530000D02*
X175570000Y-46170000D01*
X174137000Y-44737000D02*
X137063000Y-44737000D01*
X132200000Y-60000000D02*
X131000000Y-61200000D01*
X178110000Y-46530000D02*
X178110000Y-45110000D01*
X178110000Y-45110000D02*
X176721000Y-43721000D01*
X135479000Y-43721000D02*
X129000000Y-50200000D01*
X176721000Y-43721000D02*
X135479000Y-43721000D01*
X129000000Y-50200000D02*
X129000000Y-58700000D01*
X175429000Y-44229000D02*
X136571000Y-44229000D01*
X136571000Y-44229000D02*
X131000000Y-49800000D01*
X176840000Y-45640000D02*
X175429000Y-44229000D01*
X131000000Y-49800000D02*
X131000000Y-58700000D01*
X176840000Y-46530000D02*
X176840000Y-45640000D01*
X177413000Y-43213000D02*
X129387000Y-43213000D01*
X179380000Y-45180000D02*
X177413000Y-43213000D01*
X179380000Y-46530000D02*
X179380000Y-45180000D01*
X129387000Y-43213000D02*
X125000000Y-47600000D01*
X125000000Y-47600000D02*
X125000000Y-58700000D01*
X180650000Y-46530000D02*
X180650000Y-45250000D01*
X123000000Y-47600000D02*
X123000000Y-58700000D01*
X180650000Y-45250000D02*
X178105000Y-42705000D01*
X178105000Y-42705000D02*
X127895000Y-42705000D01*
X127895000Y-42705000D02*
X123000000Y-47600000D01*
D17*
X134700000Y-64200000D02*
X133900000Y-65000000D01*
X119750000Y-47450000D02*
X119750000Y-64100000D01*
X127000000Y-65000000D02*
X120650000Y-65000000D01*
X134600000Y-64100000D02*
X134700000Y-64200000D01*
X179400000Y-40800000D02*
X126400000Y-40800000D01*
X134250000Y-64100000D02*
X134600000Y-64100000D01*
X126400000Y-40800000D02*
X119750000Y-47450000D01*
X120650000Y-65000000D02*
X119750000Y-64100000D01*
X133900000Y-65000000D02*
X127000000Y-65000000D01*
X183190000Y-44590000D02*
X179400000Y-40800000D01*
X183190000Y-46530000D02*
X183190000Y-44590000D01*
M02*
