M48
; DRILL file {KiCad (6.0.7-1)-1} date Saturday, February 04, 2023 at 12:54:49 pm
; FORMAT={-:-/ absolute / inch / decimal}
; #@! TF.CreationDate,2023-02-04T12:54:49-08:00
; #@! TF.GenerationSoftware,Kicad,Pcbnew,(6.0.7-1)-1
; #@! TF.FileFunction,Plated,1,2,PTH
FMAT,2
INCH
; #@! TA.AperFunction,Plated,PTH,ComponentDrill
T1C0.0276
; #@! TA.AperFunction,Plated,PTH,ComponentDrill
T2C0.0354
; #@! TA.AperFunction,Plated,PTH,ComponentDrill
T3C0.0866
%
G90
G05
T1
X6.8622Y-1.8319
X6.8622Y-1.8819
X6.9122Y-1.8319
X6.9122Y-1.8819
X6.9622Y-1.8319
X6.9622Y-1.8819
X7.0122Y-1.8319
X7.0122Y-1.8819
X7.0622Y-1.8319
X7.0622Y-1.8819
X7.1122Y-1.8319
X7.1122Y-1.8819
X7.1622Y-1.8319
X7.1622Y-1.8819
X7.2122Y-1.8319
X7.2122Y-1.8819
X7.2622Y-1.8319
X7.2622Y-1.8819
X7.3122Y-1.8319
X7.3122Y-1.8819
X7.3622Y-1.8319
X7.3622Y-1.8819
X7.4122Y-1.8319
X7.4122Y-1.8819
X7.4622Y-1.8319
X7.4622Y-1.8819
X7.5122Y-1.8319
X7.5122Y-1.8819
X7.5622Y-1.8319
X7.5622Y-1.8819
X7.6122Y-1.8319
X7.6122Y-1.8819
X7.6622Y-1.8319
X7.6622Y-1.8819
X7.7122Y-1.8319
X7.7122Y-1.8819
X7.7622Y-1.8319
X7.7622Y-1.8819
X7.8122Y-1.8319
X7.8122Y-1.8819
T2
X4.8425Y-2.311
X4.8425Y-2.4094
X4.9213Y-2.311
X4.9724Y-2.4094
X5.0Y-2.311
X5.0512Y-2.4094
X5.0787Y-2.311
X5.1575Y-2.311
X5.1575Y-2.4094
X6.0236Y-2.311
X6.0236Y-2.4094
X6.1024Y-2.311
X6.1535Y-2.4094
X6.1811Y-2.311
X6.2323Y-2.4094
X6.2598Y-2.311
X6.3386Y-2.311
X6.3386Y-2.4094
X7.2047Y-2.3209
X7.2047Y-2.4193
X7.2835Y-2.3209
X7.3346Y-2.4193
X7.3622Y-2.3209
X7.4134Y-2.4193
X7.4409Y-2.3209
X7.5197Y-2.3209
X7.5197Y-2.4193
X8.3858Y-2.311
X8.3858Y-2.4094
X8.4646Y-2.311
X8.5157Y-2.4094
X8.5433Y-2.311
X8.5945Y-2.4094
X8.622Y-2.311
X8.7008Y-2.311
X8.7008Y-2.4094
X9.5768Y-2.3209
X9.5768Y-2.4193
X9.6555Y-2.3209
X9.7067Y-2.4193
X9.7343Y-2.3209
X9.7854Y-2.4193
X9.813Y-2.3209
X9.8917Y-2.3209
X9.8917Y-2.4193
T3
X4.7146Y-2.5236
X5.2854Y-2.5236
X5.8957Y-2.5236
X6.4665Y-2.5236
X7.0768Y-2.5335
X7.6476Y-2.5335
X8.2579Y-2.5236
X8.8287Y-2.5236
X9.4488Y-2.5335
X10.0197Y-2.5335
T1
G00X4.9705Y-2.5591
M15
G01X5.0295Y-2.5591
M16
G05
G00X6.1516Y-2.5591
M15
G01X6.2106Y-2.5591
M16
G05
G00X7.3327Y-2.5689
M15
G01X7.3917Y-2.5689
M16
G05
G00X8.5138Y-2.5591
M15
G01X8.5728Y-2.5591
M16
G05
G00X9.7047Y-2.5689
M15
G01X9.7638Y-2.5689
M16
G05
T0
M30
