G04 #@! TF.GenerationSoftware,KiCad,Pcbnew,(6.0.7-1)-1*
G04 #@! TF.CreationDate,2023-02-04T12:54:47-08:00*
G04 #@! TF.ProjectId,switcher-input-daughterboard,73776974-6368-4657-922d-696e7075742d,1*
G04 #@! TF.SameCoordinates,Original*
G04 #@! TF.FileFunction,Copper,L2,Bot*
G04 #@! TF.FilePolarity,Positive*
%FSLAX46Y46*%
G04 Gerber Fmt 4.6, Leading zero omitted, Abs format (unit mm)*
G04 Created by KiCad (PCBNEW (6.0.7-1)-1) date 2023-02-04 12:54:47*
%MOMM*%
%LPD*%
G01*
G04 APERTURE LIST*
G04 #@! TA.AperFunction,ComponentPad*
%ADD10R,1.408000X1.408000*%
G04 #@! TD*
G04 #@! TA.AperFunction,ComponentPad*
%ADD11C,1.408000*%
G04 #@! TD*
G04 #@! TA.AperFunction,ComponentPad*
%ADD12O,2.730000X1.230000*%
G04 #@! TD*
G04 #@! TA.AperFunction,ComponentPad*
%ADD13C,3.216000*%
G04 #@! TD*
G04 #@! TA.AperFunction,ComponentPad*
%ADD14O,1.000000X1.000000*%
G04 #@! TD*
G04 #@! TA.AperFunction,ComponentPad*
%ADD15R,1.000000X1.000000*%
G04 #@! TD*
G04 #@! TA.AperFunction,Conductor*
%ADD16C,0.508000*%
G04 #@! TD*
G04 #@! TA.AperFunction,Conductor*
%ADD17C,0.254000*%
G04 #@! TD*
G04 APERTURE END LIST*
D10*
X128300000Y-61200000D03*
D11*
X126300000Y-61200000D03*
X131000000Y-61200000D03*
X129000000Y-58700000D03*
X127000000Y-58700000D03*
X123000000Y-61200000D03*
X131000000Y-58700000D03*
X125000000Y-58700000D03*
X123000000Y-58700000D03*
D12*
X127000000Y-65000000D03*
D13*
X119750000Y-64100000D03*
X134250000Y-64100000D03*
D14*
X174300000Y-47800000D03*
X175570000Y-47800000D03*
X176840000Y-47800000D03*
X178110000Y-47800000D03*
X179380000Y-47800000D03*
X180650000Y-47800000D03*
X181920000Y-47800000D03*
X183190000Y-47800000D03*
X184460000Y-47800000D03*
X185730000Y-47800000D03*
X187000000Y-47800000D03*
X188270000Y-47800000D03*
X189540000Y-47800000D03*
X190810000Y-47800000D03*
X192080000Y-47800000D03*
X193350000Y-47800000D03*
X194620000Y-47800000D03*
X195890000Y-47800000D03*
X197160000Y-47800000D03*
X198430000Y-47800000D03*
X198430000Y-46530000D03*
X197160000Y-46530000D03*
X195890000Y-46530000D03*
X194620000Y-46530000D03*
X193350000Y-46530000D03*
X192080000Y-46530000D03*
X190810000Y-46530000D03*
X189540000Y-46530000D03*
X188270000Y-46530000D03*
X187000000Y-46530000D03*
X185730000Y-46530000D03*
X184460000Y-46530000D03*
X183190000Y-46530000D03*
X181920000Y-46530000D03*
X180650000Y-46530000D03*
X179380000Y-46530000D03*
X178110000Y-46530000D03*
X176840000Y-46530000D03*
X175570000Y-46530000D03*
D15*
X174300000Y-46530000D03*
D13*
X224250000Y-64100000D03*
X209750000Y-64100000D03*
D12*
X217000000Y-65000000D03*
D11*
X213000000Y-58700000D03*
X215000000Y-58700000D03*
X221000000Y-58700000D03*
X213000000Y-61200000D03*
X217000000Y-58700000D03*
X219000000Y-58700000D03*
X221000000Y-61200000D03*
X216300000Y-61200000D03*
D10*
X218300000Y-61200000D03*
X248550000Y-61450000D03*
D11*
X246550000Y-61450000D03*
X251250000Y-61450000D03*
X249250000Y-58950000D03*
X247250000Y-58950000D03*
X243250000Y-61450000D03*
X251250000Y-58950000D03*
X245250000Y-58950000D03*
X243250000Y-58950000D03*
D12*
X247250000Y-65250000D03*
D13*
X240000000Y-64350000D03*
X254500000Y-64350000D03*
D10*
X188300000Y-61450000D03*
D11*
X186300000Y-61450000D03*
X191000000Y-61450000D03*
X189000000Y-58950000D03*
X187000000Y-58950000D03*
X183000000Y-61450000D03*
X191000000Y-58950000D03*
X185000000Y-58950000D03*
X183000000Y-58950000D03*
D12*
X187000000Y-65250000D03*
D13*
X179750000Y-64350000D03*
X194250000Y-64350000D03*
D10*
X158300000Y-61200000D03*
D11*
X156300000Y-61200000D03*
X161000000Y-61200000D03*
X159000000Y-58700000D03*
X157000000Y-58700000D03*
X153000000Y-61200000D03*
X161000000Y-58700000D03*
X155000000Y-58700000D03*
X153000000Y-58700000D03*
D12*
X157000000Y-65000000D03*
D13*
X149750000Y-64100000D03*
X164250000Y-64100000D03*
D16*
X217000000Y-65000000D02*
X217100000Y-64900000D01*
X217100000Y-64900000D02*
X223450000Y-64900000D01*
X223450000Y-64900000D02*
X224250000Y-64100000D01*
X209750000Y-64100000D02*
X210550000Y-64900000D01*
X210550000Y-64900000D02*
X216900000Y-64900000D01*
X216900000Y-64900000D02*
X217000000Y-65000000D01*
D17*
X218300000Y-61200000D02*
X219500000Y-62400000D01*
X219500000Y-62400000D02*
X221400000Y-62400000D01*
X223600000Y-60200000D02*
X223600000Y-57900000D01*
X221400000Y-62400000D02*
X223600000Y-60200000D01*
X223600000Y-57900000D02*
X220676000Y-54976000D01*
X220676000Y-54976000D02*
X202994420Y-54976000D01*
X202994420Y-54976000D02*
X199702421Y-51684001D01*
X199702421Y-51684001D02*
X194084000Y-51684000D01*
X194084000Y-51684000D02*
X193350000Y-50950000D01*
X193350000Y-50950000D02*
X193350000Y-47800000D01*
X192080000Y-47800000D02*
X192080000Y-51080000D01*
X192080000Y-51080000D02*
X193192000Y-52192000D01*
X193192000Y-52192000D02*
X199492000Y-52192000D01*
X199492000Y-52192000D02*
X202784000Y-55484000D01*
X202784000Y-55484000D02*
X220184000Y-55484000D01*
X220184000Y-55484000D02*
X222200000Y-57500000D01*
X222200000Y-57500000D02*
X222200000Y-60000000D01*
X222200000Y-60000000D02*
X221000000Y-61200000D01*
X190810000Y-47800000D02*
X190810000Y-51110000D01*
X192400000Y-52700000D02*
X199249336Y-52700000D01*
X199249336Y-52700000D02*
X202541336Y-55992000D01*
X190810000Y-51110000D02*
X192400000Y-52700000D01*
X202541336Y-55992000D02*
X218292000Y-55992000D01*
X218292000Y-55992000D02*
X221000000Y-58700000D01*
X188270000Y-47800000D02*
X188270000Y-50970000D01*
X188270000Y-50970000D02*
X191087001Y-53787001D01*
X213400000Y-57100000D02*
X215000000Y-58700000D01*
X198899497Y-53787001D02*
X202212496Y-57100000D01*
X191087001Y-53787001D02*
X198899497Y-53787001D01*
X202212496Y-57100000D02*
X213400000Y-57100000D01*
X189540000Y-47800000D02*
X189540000Y-51121580D01*
X191697420Y-53279000D02*
X199109918Y-53279002D01*
X189540000Y-51121580D02*
X191697420Y-53279000D01*
X199109918Y-53279002D02*
X202330916Y-56500000D01*
X202330916Y-56500000D02*
X216800000Y-56500000D01*
X216800000Y-56500000D02*
X219000000Y-58700000D01*
X187000000Y-47800000D02*
X187000000Y-50805924D01*
X187000000Y-50805924D02*
X190489076Y-54295000D01*
X190489076Y-54295000D02*
X198689076Y-54295000D01*
X198689076Y-54295000D02*
X203094076Y-58700000D01*
X203094076Y-58700000D02*
X213000000Y-58700000D01*
D16*
X185730000Y-47800000D02*
X185730000Y-50793160D01*
X190120840Y-55184000D02*
X198320840Y-55184000D01*
X185730000Y-50793160D02*
X190120840Y-55184000D01*
X198320840Y-55184000D02*
X204536840Y-61400000D01*
X211126762Y-61400000D02*
X212626762Y-62900000D01*
X212626762Y-62900000D02*
X214600000Y-62900000D01*
X204536840Y-61400000D02*
X211126762Y-61400000D01*
X214600000Y-62900000D02*
X216300000Y-61200000D01*
X184460000Y-47800000D02*
X184460000Y-50960000D01*
X184460000Y-50960000D02*
X189700000Y-56200000D01*
X205800000Y-64100000D02*
X209750000Y-64100000D01*
X189700000Y-56200000D02*
X197900000Y-56200000D01*
X197900000Y-56200000D02*
X205800000Y-64100000D01*
D17*
X158300000Y-61200000D02*
X159700000Y-62600000D01*
X159700000Y-62600000D02*
X161134422Y-62600000D01*
X184047420Y-45247420D02*
X184460000Y-45660000D01*
X163700000Y-60034422D02*
X163700000Y-49600000D01*
X161134422Y-62600000D02*
X163700000Y-60034422D01*
X163700000Y-49600000D02*
X168052580Y-45247420D01*
X168052580Y-45247420D02*
X184047420Y-45247420D01*
X184460000Y-45660000D02*
X184460000Y-46530000D01*
D16*
X192080000Y-43516840D02*
X192080000Y-46530000D01*
X156300000Y-61200000D02*
X154500000Y-63000000D01*
X148400000Y-58673238D02*
X148400000Y-47336840D01*
X153920840Y-41816000D02*
X190379160Y-41816000D01*
X154500000Y-63000000D02*
X152726762Y-63000000D01*
X148400000Y-47336840D02*
X153920840Y-41816000D01*
X190379160Y-41816000D02*
X192080000Y-43516840D01*
X152726762Y-63000000D02*
X148400000Y-58673238D01*
D17*
X162400000Y-59800000D02*
X161000000Y-61200000D01*
X185730000Y-46530000D02*
X185730000Y-45630000D01*
X184839420Y-44739420D02*
X167100000Y-44739420D01*
X185730000Y-45630000D02*
X184839420Y-44739420D01*
X167100000Y-44739420D02*
X162400000Y-49439420D01*
X162400000Y-49439420D02*
X162400000Y-59800000D01*
X159000000Y-48100000D02*
X159000000Y-58700000D01*
X163376580Y-43723420D02*
X159000000Y-48100000D01*
X188270000Y-45070000D02*
X187508000Y-44308000D01*
X187508000Y-44308000D02*
X187507999Y-44289579D01*
X187507999Y-44289579D02*
X186941841Y-43723421D01*
X188270000Y-46530000D02*
X188270000Y-45070000D01*
X186941841Y-43723421D02*
X163376580Y-43723420D01*
X165000000Y-44231420D02*
X161000000Y-48231420D01*
X185931420Y-44231420D02*
X165000000Y-44231420D01*
X161000000Y-48231420D02*
X161000000Y-58700000D01*
X187000000Y-46530000D02*
X187000000Y-45300000D01*
X187000000Y-45300000D02*
X185931420Y-44231420D01*
X157402420Y-43213000D02*
X155000000Y-45615420D01*
X155000000Y-45615420D02*
X155000000Y-58700000D01*
X189540000Y-46530000D02*
X189540000Y-44440000D01*
X188313000Y-43213000D02*
X157402420Y-43213000D01*
X189540000Y-44440000D02*
X188313000Y-43213000D01*
X156395000Y-42705000D02*
X152900000Y-46200000D01*
X152900000Y-58600000D02*
X153000000Y-58700000D01*
X190810000Y-43710000D02*
X189805000Y-42705000D01*
X152900000Y-46200000D02*
X152900000Y-58600000D01*
X190810000Y-46530000D02*
X190810000Y-43710000D01*
X189805000Y-42705000D02*
X156395000Y-42705000D01*
D16*
X150650000Y-65000000D02*
X149750000Y-64100000D01*
X147200000Y-47100000D02*
X153500000Y-40800000D01*
X153500000Y-40800000D02*
X190800000Y-40800000D01*
X163350000Y-65000000D02*
X157000000Y-65000000D01*
X190800000Y-40800000D02*
X193350000Y-43350000D01*
X193350000Y-43350000D02*
X193350000Y-46530000D01*
X149750000Y-64100000D02*
X147200000Y-61550000D01*
X164250000Y-64100000D02*
X163350000Y-65000000D01*
X157000000Y-65000000D02*
X150650000Y-65000000D01*
X147200000Y-61550000D02*
X147200000Y-47100000D01*
M02*
