G04 #@! TF.GenerationSoftware,KiCad,Pcbnew,(6.0.7-1)-1*
G04 #@! TF.CreationDate,2023-02-04T12:54:48-08:00*
G04 #@! TF.ProjectId,switcher-input-daughterboard,73776974-6368-4657-922d-696e7075742d,1*
G04 #@! TF.SameCoordinates,Original*
G04 #@! TF.FileFunction,Legend,Bot*
G04 #@! TF.FilePolarity,Positive*
%FSLAX46Y46*%
G04 Gerber Fmt 4.6, Leading zero omitted, Abs format (unit mm)*
G04 Created by KiCad (PCBNEW (6.0.7-1)-1) date 2023-02-04 12:54:48*
%MOMM*%
%LPD*%
G01*
G04 APERTURE LIST*
%ADD10C,2.500000*%
%ADD11R,1.408000X1.408000*%
%ADD12C,1.408000*%
%ADD13O,2.730000X1.230000*%
%ADD14C,3.216000*%
%ADD15O,1.000000X1.000000*%
%ADD16R,1.000000X1.000000*%
G04 APERTURE END LIST*
%LPC*%
D10*
X260000000Y-43250000D03*
X260000000Y-60000000D03*
X114250000Y-60000000D03*
X114250000Y-43000000D03*
D11*
X128300000Y-61200000D03*
D12*
X126300000Y-61200000D03*
X131000000Y-61200000D03*
X129000000Y-58700000D03*
X127000000Y-58700000D03*
X123000000Y-61200000D03*
X131000000Y-58700000D03*
X125000000Y-58700000D03*
X123000000Y-58700000D03*
D13*
X127000000Y-65000000D03*
D14*
X119750000Y-64100000D03*
X134250000Y-64100000D03*
D15*
X174300000Y-47800000D03*
X175570000Y-47800000D03*
X176840000Y-47800000D03*
X178110000Y-47800000D03*
X179380000Y-47800000D03*
X180650000Y-47800000D03*
X181920000Y-47800000D03*
X183190000Y-47800000D03*
X184460000Y-47800000D03*
X185730000Y-47800000D03*
X187000000Y-47800000D03*
X188270000Y-47800000D03*
X189540000Y-47800000D03*
X190810000Y-47800000D03*
X192080000Y-47800000D03*
X193350000Y-47800000D03*
X194620000Y-47800000D03*
X195890000Y-47800000D03*
X197160000Y-47800000D03*
X198430000Y-47800000D03*
X198430000Y-46530000D03*
X197160000Y-46530000D03*
X195890000Y-46530000D03*
X194620000Y-46530000D03*
X193350000Y-46530000D03*
X192080000Y-46530000D03*
X190810000Y-46530000D03*
X189540000Y-46530000D03*
X188270000Y-46530000D03*
X187000000Y-46530000D03*
X185730000Y-46530000D03*
X184460000Y-46530000D03*
X183190000Y-46530000D03*
X181920000Y-46530000D03*
X180650000Y-46530000D03*
X179380000Y-46530000D03*
X178110000Y-46530000D03*
X176840000Y-46530000D03*
X175570000Y-46530000D03*
D16*
X174300000Y-46530000D03*
D14*
X224250000Y-64100000D03*
X209750000Y-64100000D03*
D13*
X217000000Y-65000000D03*
D12*
X213000000Y-58700000D03*
X215000000Y-58700000D03*
X221000000Y-58700000D03*
X213000000Y-61200000D03*
X217000000Y-58700000D03*
X219000000Y-58700000D03*
X221000000Y-61200000D03*
X216300000Y-61200000D03*
D11*
X218300000Y-61200000D03*
X248550000Y-61450000D03*
D12*
X246550000Y-61450000D03*
X251250000Y-61450000D03*
X249250000Y-58950000D03*
X247250000Y-58950000D03*
X243250000Y-61450000D03*
X251250000Y-58950000D03*
X245250000Y-58950000D03*
X243250000Y-58950000D03*
D13*
X247250000Y-65250000D03*
D14*
X240000000Y-64350000D03*
X254500000Y-64350000D03*
D11*
X188300000Y-61450000D03*
D12*
X186300000Y-61450000D03*
X191000000Y-61450000D03*
X189000000Y-58950000D03*
X187000000Y-58950000D03*
X183000000Y-61450000D03*
X191000000Y-58950000D03*
X185000000Y-58950000D03*
X183000000Y-58950000D03*
D13*
X187000000Y-65250000D03*
D14*
X179750000Y-64350000D03*
X194250000Y-64350000D03*
D11*
X158300000Y-61200000D03*
D12*
X156300000Y-61200000D03*
X161000000Y-61200000D03*
X159000000Y-58700000D03*
X157000000Y-58700000D03*
X153000000Y-61200000D03*
X161000000Y-58700000D03*
X155000000Y-58700000D03*
X153000000Y-58700000D03*
D13*
X157000000Y-65000000D03*
D14*
X149750000Y-64100000D03*
X164250000Y-64100000D03*
M02*
